<svg xmlns="http://www.w3.org/2000/svg" width="25" height="26" viewBox="0 0 25 26" fill="none">
  <path fill-rule="evenodd" clip-rule="evenodd" d="M0 20.419V25.365H24.7297V10.5271V5.5812V0.635254H0V15.4731V20.419ZM12.3649 10.2695H9.73733L7.54772 4.13863H10.1753L12.3649 10.2695ZM14.9924 10.2695H12.3649L14.5545 4.13863H17.182L14.9924 10.2695ZM14.9924 12.8971V10.2695L21.1233 8.07993V10.7075L14.9924 12.8971ZM14.9924 15.5246V12.8971L21.1233 15.0867V17.7142L14.9924 15.5246ZM12.3649 15.5246H14.9924L17.182 21.6555H14.5545L12.3649 15.5246ZM9.73733 15.5246H12.3649L10.1753 21.6555H7.54772L9.73733 15.5246ZM9.73733 12.8971V15.5246L3.60642 17.7142V15.0867L9.73733 12.8971ZM9.73733 12.8971V10.2695L3.60642 8.07993V10.7075L9.73733 12.8971Z" fill="#6341BA"/>
  <path fill-rule="evenodd" clip-rule="evenodd" d="M0 20.419V25.365H24.7297V10.5271V5.5812V0.635254H0V15.4731V20.419ZM12.3649 10.2695H9.73733L7.54772 4.13863H10.1753L12.3649 10.2695ZM14.9924 10.2695H12.3649L14.5545 4.13863H17.182L14.9924 10.2695ZM14.9924 12.8971V10.2695L21.1233 8.07993V10.7075L14.9924 12.8971ZM14.9924 15.5246V12.8971L21.1233 15.0867V17.7142L14.9924 15.5246ZM12.3649 15.5246H14.9924L17.182 21.6555H14.5545L12.3649 15.5246ZM9.73733 15.5246H12.3649L10.1753 21.6555H7.54772L9.73733 15.5246ZM9.73733 12.8971V15.5246L3.60642 17.7142V15.0867L9.73733 12.8971ZM9.73733 12.8971V10.2695L3.60642 8.07993V10.7075L9.73733 12.8971Z" fill="#7645EF"/>
</svg>